<svg xmlns="http://www.w3.org/2000/svg" version="1.1" xmlns:xlink="http://www.w3.org/1999/xlink" width="40" height="40" x="0" y="0" viewBox="0 0 32 32" style="enable-background:new 0 0 512 512" xml:space="preserve" class=""><g><path d="M21.98 17.156c.487-.174.814-.639.814-1.156s-.327-.982-.812-1.156l-2.23-.804a7.81 7.81 0 0 1-4.714-4.714l-.804-2.23a1.232 1.232 0 0 0-1.154-.812h-.001c-.516 0-.98.326-1.156.812l-.803 2.23a7.807 7.807 0 0 1-4.715 4.714l-2.228.804c-.487.175-.814.639-.814 1.156s.327.981.812 1.156l2.23.804a7.808 7.808 0 0 1 4.714 4.714l.804 2.231c.175.485.64.811 1.156.811h.001c.516 0 .98-.327 1.154-.812l.804-2.23a7.81 7.81 0 0 1 4.714-4.714zm-2.906-1.078a9.802 9.802 0 0 0-5.918 5.918l-.078.216-.078-.216a9.807 9.807 0 0 0-5.918-5.918L6.867 16l.216-.078a9.802 9.802 0 0 0 5.918-5.918l.078-.216.078.216a9.803 9.803 0 0 0 5.917 5.918l.216.078zM18.548 7.463l1.129.407a3.463 3.463 0 0 1 2.09 2.09l.406 1.128c.159.442.581.739 1.05.739s.892-.297 1.05-.738l.407-1.129a3.46 3.46 0 0 1 2.09-2.09l1.13-.407c.439-.159.736-.58.737-1.047s-.293-.89-.737-1.052l-1.13-.407a3.465 3.465 0 0 1-2.09-2.09l-.407-1.129a1.117 1.117 0 0 0-2.099 0l-.407 1.129a3.463 3.463 0 0 1-2.09 2.09l-1.132.408c-.44.16-.736.583-.735 1.051s.298.889.738 1.047zm4.676-3.008a5.437 5.437 0 0 0 1.958 1.958 5.437 5.437 0 0 0-1.958 1.958 5.444 5.444 0 0 0-1.958-1.958 5.452 5.452 0 0 0 1.958-1.958zM27.899 24.537l-1.129-.407a3.465 3.465 0 0 1-2.09-2.09l-.407-1.129a1.118 1.118 0 0 0-2.1 0l-.407 1.129a3.46 3.46 0 0 1-2.09 2.09l-1.128.406c-.441.158-.738.58-.739 1.048s.294.891.738 1.052l1.129.407a3.458 3.458 0 0 1 2.09 2.09l.406 1.128a1.118 1.118 0 0 0 2.102.001l.407-1.129a3.465 3.465 0 0 1 2.09-2.09l1.134-.408c.439-.161.734-.583.733-1.051s-.299-.888-.739-1.047zm-4.675 3.008a5.437 5.437 0 0 0-1.958-1.958 5.444 5.444 0 0 0 1.958-1.958 5.444 5.444 0 0 0 1.958 1.958 5.444 5.444 0 0 0-1.958 1.958z" fill="#BA81EE" opacity="1" data-original="#000000"></path></g></svg>