<svg xmlns="http://www.w3.org/2000/svg" version="1.1" xmlns:xlink="http://www.w3.org/1999/xlink" width="40" height="40" x="0" y="0" viewBox="0 0 64 64" style="enable-background:new 0 0 512 512" xml:space="preserve"><g><path d="M26 49.214V59a1.001 1.001 0 0 0 1.555.832l8-5.33A.999.999 0 0 0 36 53.67v-4.456l3.033-2.567C39.369 51.859 43.704 56 49 56c11.888-.32 13.706-16.743 2.303-19.722l4.632-3.914A2.995 2.995 0 0 0 57 30.07V27c0-1.654-1.346-3-3-3h-1v-2.666c0-3.167-1.854-5.902-4.53-7.197a5.655 5.655 0 0 0 2.197-4.47A5.673 5.673 0 0 0 45 4c-5.38-.013-7.689 6.92-3.47 10.137A8.045 8.045 0 0 0 38 17.469a8.045 8.045 0 0 0-3.53-3.332C38.69 10.932 36.374 3.977 31 4c-5.375-.014-7.692 6.919-3.47 10.137A8.045 8.045 0 0 0 24 17.469a8.045 8.045 0 0 0-3.53-3.332C24.694 10.93 22.37 3.976 17 4c-5.369-.016-7.696 6.918-3.47 10.137C10.854 15.432 9 18.167 9 21.334V24H8c-1.654 0-3 1.346-3 3v3.07c0 .887.388 1.723 1.064 2.294L26 49.214zM57 46c0 4.411-3.589 8-8 8-10.613-.44-10.61-15.562 0-16 4.411 0 8 3.589 8 8zM41.334 9.666c.154-4.845 7.179-4.844 7.333 0-.155 4.847-7.18 4.845-7.333 0zm-14 0c.154-4.845 7.179-4.844 7.333 0-.155 4.847-7.18 4.845-7.333 0zM31 15.333c3.309 0 6 2.692 6 6V24H25v-2.667c0-3.308 2.691-6 6-6zM13.334 9.666c.154-4.845 7.179-4.844 7.333 0-.155 4.847-7.18 4.845-7.333 0zM11 21.334c.282-7.94 11.72-7.938 12 0V24H11v-2.667zM7 27c0-.551.449-1 1-1h39a1 1 0 0 0 0-2h-8v-2.667c0-3.308 2.691-6 6-6s6 2.692 6 6V25a1 1 0 0 0 1 1h2c.551 0 1 .449 1 1v3.01H13.76c-1.3.019-1.327 1.976 0 2h39.496l-4.752 4.015c-4.554.225-8.315 3.5-9.266 7.829l-4.884 4.133a1 1 0 0 0-.354.763v4.385l-6 3.997V48.75a1 1 0 0 0-.354-.764L7.355 30.836A1 1 0 0 1 7 30.07V27z" fill="#70B5FF" opacity="1" data-original="#000000"></path><path d="M48 41.5v.26c-3.137.589-2.762 5.184.452 5.24h1.096c.84.003.84 1.282 0 1.286H46.81c-1.313.02-1.316 1.978 0 2H48c-.078.618.348 1.22 1 1.214.677.005 1.085-.627 1-1.26 3.137-.589 2.762-5.184-.452-5.24-.57-.048-1.711.254-1.738-.643 0-.355.288-.643.642-.643h2.738c1.313-.02 1.316-1.978 0-2H50c.176-1.448-1.917-1.676-2-.214z" fill="#70B5FF" opacity="1" data-original="#000000"></path></g></svg>