<svg xmlns="http://www.w3.org/2000/svg" version="1.1" xmlns:xlink="http://www.w3.org/1999/xlink" width="41" height="41" x="0" y="0" viewBox="0 0 66 66" style="enable-background:new 0 0 512 512" xml:space="preserve"><g><path d="M42.62 46.18c5.54-7.2 11.6-16.53 11.6-22.88C54.22 11.6 44.7 2.08 33 2.08S11.78 11.6 11.78 23.3c0 6.35 6.06 15.67 11.6 22.88-6.75 1.6-10.89 4.73-10.89 8.34 0 5.27 9.01 9.4 20.5 9.4s20.5-4.13 20.5-9.4c.01-3.62-4.12-6.75-10.87-8.34zM33 3.96c10.67 0 19.34 8.68 19.34 19.34 0 9.56-15.83 27.57-19.34 31.45-3.51-3.88-19.34-21.88-19.34-31.45 0-10.66 8.67-19.34 19.34-19.34zm-.68 52.81c.18.19.42.3.68.3s.51-.11.68-.3c.24-.26 2.1-2.26 4.6-5.22 2.56.69 4.31 1.87 4.31 2.96 0 1.71-4.1 3.62-9.59 3.62s-9.59-1.91-9.59-3.62c0-1.09 1.75-2.27 4.31-2.96 2.49 2.97 4.35 4.96 4.6 5.22zm.68 5.27c-11.14 0-18.63-3.89-18.63-7.53 0-2.74 4.11-5.4 10.29-6.7.6.75 1.18 1.47 1.74 2.16-3.08.99-4.87 2.64-4.87 4.54C21.53 57.64 26.46 60 33 60s11.47-2.36 11.47-5.49c0-1.9-1.79-3.54-4.87-4.54.56-.68 1.14-1.41 1.74-2.16 6.18 1.3 10.29 3.95 10.29 6.7 0 3.64-7.49 7.53-18.63 7.53z" fill="#000000" opacity="1" data-original="#000000"></path><path d="M48.14 22.83c0-8.35-6.79-15.14-15.14-15.14s-15.14 6.79-15.14 15.14S24.65 37.97 33 37.97s15.14-6.8 15.14-15.14zm-28.41 0c0-7.31 5.95-13.27 13.27-13.27s13.27 5.95 13.27 13.27S40.31 36.09 33 36.09s-13.27-5.95-13.27-13.26z" fill="#000000" opacity="1" data-original="#000000"></path><path d="M24.78 21.89c-.56 0-1.02-.46-1.02-1.02s.46-1.02 1.02-1.02c.44 0 .82.28.96.69.17.49.7.75 1.19.58s.75-.7.58-1.19c-.4-1.17-1.5-1.96-2.74-1.96-1.59 0-2.89 1.3-2.89 2.89s1.3 2.89 2.89 2.89c.56 0 1.02.46 1.02 1.02s-.46 1.02-1.02 1.02c-.41 0-.78-.24-.94-.62-.2-.48-.75-.7-1.23-.5s-.7.75-.5 1.23c.45 1.07 1.5 1.76 2.66 1.76 1.59 0 2.89-1.3 2.89-2.89s-1.27-2.88-2.87-2.88zM34.81 26.73c0-.52-.42-.94-.94-.94h-2.39v-2.03h2.39a.939.939 0 1 0 0-1.88h-2.39v-2.03h2.39a.939.939 0 1 0 0-1.88h-3.32c-.52 0-.94.42-.94.94v7.81c0 .52.42.94.94.94h3.32c.52.01.94-.41.94-.93zM40.43 27.67c2.03 0 3.68-1.65 3.68-3.68v-2.33c0-2.03-1.65-3.68-3.68-3.68s-3.68 1.65-3.68 3.68v2.33c.01 2.03 1.65 3.68 3.68 3.68zm-1.8-6.01c0-.99.81-1.8 1.8-1.8s1.8.81 1.8 1.8v2.33c0 .99-.81 1.8-1.8 1.8s-1.8-.81-1.8-1.8z" fill="#000000" opacity="1" data-original="#000000"></path></g></svg>