<svg xmlns="http://www.w3.org/2000/svg" version="1.1" xmlns:xlink="http://www.w3.org/1999/xlink" width="40" height="40" x="0" y="0" viewBox="0 0 497.904 497.904" style="enable-background:new 0 0 512 512" xml:space="preserve" class=""><g><path d="M485.584 338.959 328.987 67.724c-35.303-61.149-124.923-60.878-160.071 0L12.318 338.959C-22.894 399.947 21.72 475.94 91.233 475.94c31.226 0 62.08-16.013 79.212-45.687l78.506-135.977 78.506 135.977c17.105 29.628 47.937 45.687 79.212 45.687 69.466 0 114.146-75.96 78.915-136.981zm-342.852 75.294c-13.822 23.942-41.921 34.781-67.794 27.341-37.155-10.795-54.038-53.502-34.908-86.636 16.384-28.379 52.612-38.092 80.998-21.704 28.381 16.386 38.092 52.615 21.704 80.999zm34.696-60.094c-14.906-42.335-58.535-67.563-102.701-59.294L163.14 141.73c3.939 12.044 1.172 5.946 67.337 120.547zm258.74 81.798c-28.377 16.386-64.611 6.68-80.998-21.704L198.573 143.018c-29.882-51.757 27.723-110.637 79.054-80.998 19.208 11.09 13.923 4.861 180.245 292.938 16.347 28.315 6.611 64.651-21.704 80.999z" fill="#79D45E" opacity="1" data-original="#000000"></path></g></svg>